<svg width="320" height="600" viewBox="0 0 391 662" fill="none" xmlns="http://www.w3.org/2000/svg">
<g clip-path="url(#clip0_0_1)">
<path d="M212.337 46.9146C54.9792 -43.9362 -146.234 9.97873 -237.085 167.337C-327.936 324.695 -274.021 525.909 -116.663 616.759C40.6957 707.61 241.909 653.695 332.76 496.337C423.611 338.979 369.696 137.765 212.337 46.9146Z" stroke="#217BF4" stroke-opacity="0.05" stroke-width="5"/>
<g clip-path="url(#clip1_0_1)">
<path d="M220.56 601.051C210.995 595.529 198.763 598.806 193.24 608.372C187.717 617.938 190.995 630.17 200.56 635.692C210.126 641.215 222.358 637.938 227.881 628.372C233.404 618.806 230.126 606.574 220.56 601.051Z" fill="#217BF4"/>
</g>
</g>
<g clip-path="url(#clip2_0_1)">
<path d="M385.137 316.814C380.115 313.915 373.581 315.829 370.543 321.09C367.506 326.352 369.115 332.967 374.137 335.867C379.159 338.766 385.692 336.852 388.73 331.59C391.768 326.329 390.159 319.714 385.137 316.814Z" fill="#F46D21"/>
</g>
<defs>
<clipPath id="clip0_0_1">
<rect width="380" height="664" fill="white"/>
</clipPath>
<clipPath id="clip1_0_1">
<rect width="41" height="41" fill="white" transform="translate(190 598)"/>
</clipPath>
<clipPath id="clip2_0_1">
<rect width="22" height="23" fill="white" transform="translate(369 315)"/>
</clipPath>
</defs>
</svg>
