<svg width="1440" height="1024" viewBox="0 0 1440 1024" fill="none" xmlns="http://www.w3.org/2000/svg">
<g clip-path="url(#clip0_1_2)">
<rect width="1440" height="1024" />
<g clip-path="url(#clip1_1_2)">
<path d="M1175.78 801.042C1462.3 801.042 1694.58 571.345 1694.58 288C1694.58 4.65483 1462.3 -225.042 1175.78 -225.042C889.255 -225.042 656.98 4.65483 656.98 288C656.98 571.345 889.255 801.042 1175.78 801.042Z" stroke="#217BF4" stroke-opacity="0.05" stroke-width="5"/>
<g clip-path="url(#clip2_1_2)">
<path d="M695.581 146.56C717.993 146.56 736.162 128.908 736.162 107.134C736.162 85.3597 717.993 67.7081 695.581 67.7081C673.169 67.7081 655 85.3597 655 107.134C655 128.908 673.169 146.56 695.581 146.56Z" fill="#217BF4"/>
</g>
<g clip-path="url(#clip3_1_2)">
<path d="M802.245 626.386C797.15 623.528 790.522 625.415 787.44 630.601C784.358 635.787 785.99 642.307 791.085 645.165C796.18 648.023 802.809 646.136 805.891 640.95C808.972 635.765 807.34 629.244 802.245 626.386Z" fill="#F46D21"/>
</g>
</g>
<g clip-path="url(#clip4_1_2)">
<path d="M1274 803C1282.28 803 1289 796.284 1289 788C1289 779.716 1282.28 773 1274 773C1265.72 773 1259 779.716 1259 788C1259 796.284 1265.72 803 1274 803Z" fill="#217BF4"/>
</g>
</g>
<defs>
<clipPath id="clip0_1_2">
<rect width="1440" height="1024" />
</clipPath>
<clipPath id="clip1_1_2">
<rect width="838" height="1030"  transform="translate(655 -227)"/>
</clipPath>
<clipPath id="clip2_1_2">
<rect width="81.1622" height="78.8517"  transform="translate(655 67.7081)"/>
</clipPath>
<clipPath id="clip3_1_2">
<rect width="22.3196" height="22.6699"  transform="translate(785.874 624.598)"/>
</clipPath>
<clipPath id="clip4_1_2">
<rect width="30" height="30"  transform="translate(1259 773)"/>
</clipPath>
</defs>
</svg>
